<svg xmlns="http://www.w3.org/2000/svg" viewBox="0 0 772.64 106.68"><g data-name="Capa 2"><path d="M55.17 88.05a41.43 41.43 0 008.88-.85 43.62 43.62 0 007.31-2.3V69.07H61a5 5 0 01-3.58-1.22 4.05 4.05 0 01-1.29-3.08V51.44h37.15v44.07a55.13 55.13 0 01-8.34 5 53.05 53.05 0 01-9.25 3.49 68.28 68.28 0 01-10.46 2 103.49 103.49 0 01-11.92.64 54.67 54.67 0 01-21.21-4.05 50.67 50.67 0 01-28-28.08A55 55 0 010 53.31a57.81 57.81 0 013.87-21.46A48.39 48.39 0 0114.94 15 50.35 50.35 0 0132.35 4a62.87 62.87 0 0122.82-4 66.17 66.17 0 0112.25 1.08A60.08 60.08 0 0178 4a49.48 49.48 0 018.85 4.45A47.51 47.51 0 0194 14l-7 10.72a7.81 7.81 0 01-2.4 2.36 5.65 5.65 0 01-3 .86 8.35 8.35 0 01-4.44-1.43q-2.86-1.73-5.41-3a33.11 33.11 0 00-5.19-2.05 34.79 34.79 0 00-5.59-1.14 54.63 54.63 0 00-6.66-.32 30.05 30.05 0 00-12.25 2.4 26.27 26.27 0 00-9.28 6.77 30.39 30.39 0 00-5.91 10.5 42.15 42.15 0 00-2.08 13.65 43.8 43.8 0 002.29 14.75A31.83 31.83 0 0033.42 79 27.06 27.06 0 0043 85.73a31.13 31.13 0 0012.17 2.32zm150.03 17.49h-18.78a8.66 8.66 0 01-5.19-1.47 7.56 7.56 0 01-2.83-3.76l-6.16-18.2h-39.69l-6.17 18.2a8.32 8.32 0 01-7.88 5.23H99.59L140 1.15h24.79zm-67.07-39.91h28.52L157.05 37l-2.19-6.41c-.83-2.46-1.66-5.12-2.47-8Q151.25 27 150 30.74c-.82 2.48-1.58 4.63-2.3 6.45zm99.74 20.56h38.69v19.35h-62.91V1.15h24.22zm74.37 0h38.68v19.35H288V1.15h24.22zm147.3 19.35h-18.77a8.66 8.66 0 01-5.19-1.47 7.5 7.5 0 01-2.83-3.76l-6.17-18.2h-39.69l-6.16 18.2a8.32 8.32 0 01-7.88 5.23h-18.92L394.34 1.15h24.79zm-67.06-39.91H421L411.39 37q-.93-2.72-2.18-6.41t-2.47-8q-1.15 4.37-2.37 8.1t-2.29 6.45zm99.73 1.29v38.62H468V1.15h34a69.74 69.74 0 0119.3 2.32 36.29 36.29 0 0113 6.49 24.51 24.51 0 017.35 9.82 32.47 32.47 0 012.29 12.32 33 33 0 01-1.36 9.6 29.24 29.24 0 01-4.05 8.35 31.56 31.56 0 01-6.59 6.84 35.15 35.15 0 01-9 4.94 23 23 0 014.55 3 18 18 0 013.69 4.37l22.21 36.33h-21.92q-6.09 0-8.74-4.59l-17.33-30.3a7.41 7.41 0 00-2.69-2.86 9 9 0 00-4.34-.86zm0-16.7H502a24.76 24.76 0 008.37-1.22 15.12 15.12 0 005.7-3.47 13.09 13.09 0 003.22-5.2 19.89 19.89 0 001-6.41q0-6.88-4.48-10.75T502 19.27h-9.75zM658 53.31a54.81 54.81 0 01-3.9 20.88 48.94 48.94 0 01-11 16.55 49.84 49.84 0 01-17.1 10.89 60.29 60.29 0 01-22.17 3.91h-40.55V1.15h40.56A59.88 59.88 0 01626 5.09 50.59 50.59 0 01643.1 16a48.58 48.58 0 0111 16.51 54.65 54.65 0 013.9 20.8zm-24.79 0a45.78 45.78 0 00-2-14 29.87 29.87 0 00-5.77-10.56 25.18 25.18 0 00-9.21-6.67 31.29 31.29 0 00-12.39-2.32h-16.2v67.15h16.2a31.29 31.29 0 0012.39-2.33 25 25 0 009.21-6.66 29.92 29.92 0 005.77-10.57 46 46 0 002-14.04zm139.43 0a56.15 56.15 0 01-3.91 21.06 49.85 49.85 0 01-28.08 28.23 62.41 62.41 0 01-44.39 0 49.85 49.85 0 01-28.19-28.23 56 56 0 01-3.91-21.06 56 56 0 013.91-21.07 50.19 50.19 0 0111-16.91 51.17 51.17 0 0117.19-11.25A58.44 58.44 0 01718.47 0a57.84 57.84 0 0122.18 4.12 51.3 51.3 0 0117.08 11.28 50.41 50.41 0 0111 16.91 56 56 0 013.91 21zm-24.79 0a45.07 45.07 0 00-2-13.94 29.46 29.46 0 00-5.77-10.49 24.94 24.94 0 00-9.2-6.6A31.73 31.73 0 00718.47 20 32.1 32.1 0 00706 22.28a24.68 24.68 0 00-9.24 6.6A29.3 29.3 0 00691 39.37a45.07 45.07 0 00-2 13.94 45.28 45.28 0 002 14 29.35 29.35 0 005.77 10.5 24.37 24.37 0 009.23 6.56 32.67 32.67 0 0012.5 2.25 32.29 32.29 0 0012.4-2.25 24.62 24.62 0 009.2-6.56 29.5 29.5 0 005.77-10.5 45.28 45.28 0 001.98-14z" data-name="Capa 5"/></g></svg>