<svg xmlns="http://www.w3.org/2000/svg" viewBox="0 0 772.64 106.68"><title>Recurso 6</title><g id="Capa_2" data-name="Capa 2"><g id="Capa_5" data-name="Capa 5"><path d="M55.17,88.05a41.43,41.43,0,0,0,8.88-.85,43.62,43.62,0,0,0,7.31-2.3V69.07H61a5,5,0,0,1-3.58-1.22,4.05,4.05,0,0,1-1.29-3.08V51.44H93.28V95.51a55.13,55.13,0,0,1-8.34,5A53.05,53.05,0,0,1,75.69,104a68.28,68.28,0,0,1-10.46,2,103.49,103.49,0,0,1-11.92.64,54.67,54.67,0,0,1-21.21-4.05,50.67,50.67,0,0,1-28-28.08A55,55,0,0,1,0,53.31,57.81,57.81,0,0,1,3.87,31.85,48.39,48.39,0,0,1,14.94,15a50.35,50.35,0,0,1,17.41-11A62.87,62.87,0,0,1,55.17,0,66.17,66.17,0,0,1,67.42,1.08,60.08,60.08,0,0,1,78,4a49.48,49.48,0,0,1,8.85,4.45A47.51,47.51,0,0,1,94,14L87,24.72a7.81,7.81,0,0,1-2.4,2.36,5.65,5.65,0,0,1-3,.86,8.35,8.35,0,0,1-4.44-1.43q-2.86-1.73-5.41-3a33.11,33.11,0,0,0-5.19-2.05,34.79,34.79,0,0,0-5.59-1.14A54.63,54.63,0,0,0,54.31,20a30.05,30.05,0,0,0-12.25,2.4,26.27,26.27,0,0,0-9.28,6.77,30.39,30.39,0,0,0-5.91,10.5,42.15,42.15,0,0,0-2.08,13.65,43.8,43.8,0,0,0,2.29,14.75A31.83,31.83,0,0,0,33.42,79,27.06,27.06,0,0,0,43,85.73,31.13,31.13,0,0,0,55.17,88.05Z"/><path d="M205.2,105.54H186.42a8.66,8.66,0,0,1-5.19-1.47,7.56,7.56,0,0,1-2.83-3.76l-6.16-18.2H132.55l-6.17,18.2a8.32,8.32,0,0,1-7.88,5.23H99.59L140,1.15h24.79ZM138.13,65.63h28.52L157.05,37l-2.19-6.41c-.83-2.46-1.66-5.12-2.47-8Q151.25,27,150,30.74c-.82,2.48-1.58,4.63-2.3,6.45Z"/><path d="M237.87,86.19h38.69v19.35H213.65V1.15h24.22Z"/><path d="M312.24,86.19h38.68v19.35H288V1.15h24.22Z"/><path d="M459.54,105.54H440.77a8.66,8.66,0,0,1-5.19-1.47,7.5,7.5,0,0,1-2.83-3.76l-6.17-18.2H386.89l-6.16,18.2a8.32,8.32,0,0,1-7.88,5.23H353.93L394.34,1.15h24.79ZM392.48,65.63H421L411.39,37q-.93-2.72-2.18-6.41t-2.47-8q-1.15,4.37-2.37,8.1t-2.29,6.45Z"/><path d="M492.21,66.92v38.62H468V1.15h34a69.74,69.74,0,0,1,19.3,2.32,36.29,36.29,0,0,1,13,6.49,24.51,24.51,0,0,1,7.35,9.82,32.47,32.47,0,0,1,2.29,12.32,33,33,0,0,1-1.36,9.6,29.24,29.24,0,0,1-4.05,8.35,31.56,31.56,0,0,1-6.59,6.84,35.15,35.15,0,0,1-9,4.94,23,23,0,0,1,4.55,3,18,18,0,0,1,3.69,4.37l22.21,36.33H531.47q-6.09,0-8.74-4.59L505.4,70.64a7.41,7.41,0,0,0-2.69-2.86,9,9,0,0,0-4.34-.86Zm0-16.7H502A24.76,24.76,0,0,0,510.37,49a15.12,15.12,0,0,0,5.7-3.47,13.09,13.09,0,0,0,3.22-5.2,19.89,19.89,0,0,0,1-6.41q0-6.88-4.48-10.75T502,19.27h-9.75Z"/><path d="M658,53.31a54.81,54.81,0,0,1-3.9,20.88,48.94,48.94,0,0,1-11,16.55A49.84,49.84,0,0,1,626,101.63a60.29,60.29,0,0,1-22.17,3.91H563.28V1.15h40.56A59.88,59.88,0,0,1,626,5.09,50.59,50.59,0,0,1,643.1,16a48.58,48.58,0,0,1,11,16.51A54.65,54.65,0,0,1,658,53.31Zm-24.79,0a45.78,45.78,0,0,0-2-14,29.87,29.87,0,0,0-5.77-10.56,25.18,25.18,0,0,0-9.21-6.67,31.29,31.29,0,0,0-12.39-2.32h-16.2V86.91h16.2a31.29,31.29,0,0,0,12.39-2.33,25,25,0,0,0,9.21-6.66,29.92,29.92,0,0,0,5.77-10.57A46,46,0,0,0,633.21,53.31Z"/><path d="M772.64,53.31a56.15,56.15,0,0,1-3.91,21.06,49.85,49.85,0,0,1-28.08,28.23,62.41,62.41,0,0,1-44.39,0,49.85,49.85,0,0,1-28.19-28.23,56,56,0,0,1-3.91-21.06,56,56,0,0,1,3.91-21.07,50.19,50.19,0,0,1,11-16.91A51.17,51.17,0,0,1,696.26,4.08,58.44,58.44,0,0,1,718.47,0a57.84,57.84,0,0,1,22.18,4.12A51.3,51.3,0,0,1,757.73,15.4a50.41,50.41,0,0,1,11,16.91A56,56,0,0,1,772.64,53.31Zm-24.79,0a45.07,45.07,0,0,0-2-13.94,29.46,29.46,0,0,0-5.77-10.49,24.94,24.94,0,0,0-9.2-6.6A31.73,31.73,0,0,0,718.47,20,32.1,32.1,0,0,0,706,22.28a24.68,24.68,0,0,0-9.24,6.6A29.3,29.3,0,0,0,691,39.37a45.07,45.07,0,0,0-2,13.94,45.28,45.28,0,0,0,2,14,29.35,29.35,0,0,0,5.77,10.5A24.37,24.37,0,0,0,706,84.37a32.67,32.67,0,0,0,12.5,2.25,32.29,32.29,0,0,0,12.4-2.25,24.62,24.62,0,0,0,9.2-6.56,29.5,29.5,0,0,0,5.77-10.5A45.28,45.28,0,0,0,747.85,53.31Z"/></g></g></svg>